<svg xmlns="http://www.w3.org/2000/svg" viewBox="0 0 1024 1024" role="img" aria-label="FloatLyrics app icon">
  <defs>
    <linearGradient id="base" x1="176" y1="96" x2="848" y2="928" gradientUnits="userSpaceOnUse">
      <stop offset="0" stop-color="#202a33"/>
      <stop offset="0.46" stop-color="#0b1117"/>
      <stop offset="1" stop-color="#04070a"/>
    </linearGradient>
    <linearGradient id="panel" x1="256" y1="288" x2="768" y2="724" gradientUnits="userSpaceOnUse">
      <stop offset="0" stop-color="#ffffff" stop-opacity="0.22"/>
      <stop offset="0.44" stop-color="#ffffff" stop-opacity="0.09"/>
      <stop offset="1" stop-color="#ffffff" stop-opacity="0.04"/>
    </linearGradient>
    <linearGradient id="green" x1="324" y1="316" x2="730" y2="758" gradientUnits="userSpaceOnUse">
      <stop offset="0" stop-color="#74f5a4"/>
      <stop offset="0.52" stop-color="#1ed760"/>
      <stop offset="1" stop-color="#0ea64a"/>
    </linearGradient>
    <linearGradient id="cyan" x1="342" y1="310" x2="746" y2="550" gradientUnits="userSpaceOnUse">
      <stop offset="0" stop-color="#8cf5ff" stop-opacity="0.95"/>
      <stop offset="1" stop-color="#23b7d8" stop-opacity="0.12"/>
    </linearGradient>
    <filter id="shadow" x="-20%" y="-20%" width="140%" height="150%">
      <feDropShadow dx="0" dy="28" stdDeviation="34" flood-color="#000000" flood-opacity="0.46"/>
    </filter>
    <filter id="softGlow" x="-60%" y="-60%" width="220%" height="220%">
      <feGaussianBlur stdDeviation="28"/>
    </filter>
    <clipPath id="squircle">
      <rect x="96" y="96" width="832" height="832" rx="212"/>
    </clipPath>
  </defs>

  <rect x="96" y="96" width="832" height="832" rx="212" fill="url(#base)"/>
  <g clip-path="url(#squircle)">
    <circle cx="300" cy="250" r="220" fill="#2cf07a" opacity="0.13" filter="url(#softGlow)"/>
    <circle cx="770" cy="780" r="260" fill="#1aa6ff" opacity="0.12" filter="url(#softGlow)"/>
    <path d="M140 226C298 120 503 136 662 238C789 319 887 450 934 608V96H96v243c12-43 27-80 44-113Z" fill="#ffffff" opacity="0.06"/>
  </g>

  <rect x="96" y="96" width="832" height="832" rx="212" fill="none" stroke="#ffffff" stroke-opacity="0.18" stroke-width="4"/>
  <rect x="116" y="116" width="792" height="792" rx="192" fill="none" stroke="#ffffff" stroke-opacity="0.08" stroke-width="3"/>

  <g filter="url(#shadow)">
    <rect x="214" y="294" width="596" height="436" rx="92" fill="#071016" fill-opacity="0.78"/>
    <rect x="214" y="294" width="596" height="436" rx="92" fill="url(#panel)"/>
    <rect x="238" y="320" width="548" height="384" rx="72" fill="none" stroke="#ffffff" stroke-opacity="0.16" stroke-width="4"/>

    <g opacity="0.95">
      <rect x="326" y="442" width="372" height="34" rx="17" fill="#ffffff"/>
      <rect x="276" y="538" width="472" height="34" rx="17" fill="#ffffff" opacity="0.72"/>
      <rect x="356" y="622" width="312" height="24" rx="12" fill="#cfe8f1" opacity="0.42"/>
    </g>

    <path d="M304 348C385 288 505 290 579 356C639 410 723 399 774 343" fill="none" stroke="url(#cyan)" stroke-width="15" stroke-linecap="round" opacity="0.82"/>

    <g transform="translate(654 382)">
      <circle cx="14" cy="162" r="58" fill="url(#green)"/>
      <rect x="56" y="10" width="40" height="152" rx="20" fill="url(#green)"/>
      <path d="M88 20C145 31 184 49 214 82C230 100 218 129 194 131C153 134 128 102 96 88V20Z" fill="url(#green)"/>
      <circle cx="14" cy="162" r="31" fill="#06140c" opacity="0.23"/>
    </g>
  </g>
</svg>
